<mxfile host="65bd71144e">
    <diagram id="plKBviCwv7sr6mub3oe-" name="Page-1">
        <mxGraphModel dx="788" dy="380" grid="1" gridSize="10" guides="1" tooltips="1" connect="1" arrows="1" fold="1" page="1" pageScale="1" pageWidth="827" pageHeight="1169" math="0" shadow="0">
            <root>
                <mxCell id="0"/>
                <mxCell id="1" parent="0"/>
                <mxCell id="12" value="docker" style="ellipse;whiteSpace=wrap;html=1;" vertex="1" parent="1">
                    <mxGeometry x="280" y="80" width="460" height="320" as="geometry"/>
                </mxCell>
                <mxCell id="5" value="front-end&lt;br&gt;react-native" style="rounded=1;whiteSpace=wrap;html=1;" vertex="1" parent="1">
                    <mxGeometry x="120" y="180" width="120" height="60" as="geometry"/>
                </mxCell>
                <mxCell id="7" value="nginx" style="rounded=1;whiteSpace=wrap;html=1;" vertex="1" parent="1">
                    <mxGeometry x="360" y="140" width="120" height="60" as="geometry"/>
                </mxCell>
                <mxCell id="8" value="back-end&lt;br&gt;nest.js" style="rounded=1;whiteSpace=wrap;html=1;" vertex="1" parent="1">
                    <mxGeometry x="530" y="140" width="120" height="60" as="geometry"/>
                </mxCell>
                <mxCell id="9" value="database&lt;br&gt;mongodb" style="rounded=1;whiteSpace=wrap;html=1;" vertex="1" parent="1">
                    <mxGeometry x="450" y="290" width="120" height="60" as="geometry"/>
                </mxCell>
                <mxCell id="10" value="cloud platform&lt;br&gt;aws" style="rounded=1;whiteSpace=wrap;html=1;" vertex="1" parent="1">
                    <mxGeometry x="670" y="30" width="120" height="60" as="geometry"/>
                </mxCell>
            </root>
        </mxGraphModel>
    </diagram>
</mxfile>